<svg width="27" height="27" viewBox="0 0 27 27" fill="none" xmlns="http://www.w3.org/2000/svg">
<path fill-rule="evenodd" clip-rule="evenodd" d="M3.95995 4.01039C3.53626 4.47845 3.48 5.54246 3.48 13.1004C3.48 21.0247 3.51944 21.6958 4.01041 22.14C4.47847 22.5637 5.54248 22.62 13.1005 22.62C21.0247 22.62 21.6958 22.5805 22.1401 22.0896C22.5637 21.6215 22.62 20.5575 22.62 12.9995C22.62 5.07527 22.5806 4.40421 22.0896 3.95993C21.6215 3.53624 20.5575 3.47998 12.9995 3.47998C5.07529 3.47998 4.40423 3.51942 3.95995 4.01039ZM14.5 11.0391C14.5 16.0254 14.3582 16.8458 13.3652 17.6082C12.0275 18.6351 9.86 17.4951 9.86 15.7644C9.86 14.8097 10.8721 13.63 11.6911 13.63C12.0565 13.63 12.18 13.3736 12.18 12.615C12.18 11.4628 12.0553 11.4225 10.4632 12.0596C7.71197 13.1605 7.134 16.7997 9.39513 18.7847C10.7874 20.0071 12.18 20.202 13.8269 19.4048C15.7467 18.4756 16.2255 17.2561 16.2336 13.2762L16.24 10.1674L17.2956 10.8837C17.8759 11.2778 18.6589 11.6 19.0356 11.6C19.6144 11.6 19.72 11.4547 19.72 10.6572C19.72 9.83649 19.5625 9.63842 18.5035 9.12802C17.6364 8.71013 17.1161 8.19364 16.691 7.32944C16.211 6.3533 15.9396 6.11434 15.2975 6.10361L14.5 6.08998V11.0391Z" fill="white"/>
</svg>
